HIERARCHY
ROOT Hip
{
  OFFSET 0.0 0.0 0.0
  CHANNELS 6 Xposition Yposition Zposition Xrotation Yrotation Zrotation
  JOINT LowerSpine
  {
    OFFSET 0.0 0.061367 -0.03653
    CHANNELS 3 Xrotation Yrotation Zrotation
    JOINT MiddleSpine
    {
      OFFSET 0.0 0.056002 0.002633
      CHANNELS 3 Xrotation Yrotation Zrotation
      JOINT Chest
      {
        OFFSET 0.0 0.069296 -0.013882
        CHANNELS 3 Xrotation Yrotation Zrotation
        JOINT Neck
        {
          OFFSET 0.0 0.156156 -0.002923
          CHANNELS 3 Xrotation Yrotation Zrotation
          JOINT Head
          {
            OFFSET 0.0 0.088183 0.023986
            CHANNELS 3 Xrotation Yrotation Zrotation
            End Site
            {
              OFFSET 1e-06 0.123215 0.003678
            }
          }
        }
        JOINT LClavicle
        {
          OFFSET 0.014189 0.150698 0.046467
          CHANNELS 3 Xrotation Yrotation Zrotation
          JOINT LShoulder
          {
            OFFSET 0.082893 0.021616 -0.034976
            CHANNELS 3 Xrotation Yrotation Zrotation
            JOINT LForearm
            {
              OFFSET 0.195645 -0.000695 -0.001695
              CHANNELS 3 Xrotation Yrotation Zrotation
              JOINT LHand
              {
                OFFSET 0.163209 0.000474 -0.000977
                CHANNELS 3 Xrotation Yrotation Zrotation
                End Site
                {
                  OFFSET 0.0 0.006864 0.0
                }
              }
            }
          }
        }
        JOINT RClavicle
        {
          OFFSET -0.014189 0.150698 0.046467
          CHANNELS 3 Xrotation Yrotation Zrotation
          JOINT RShoulder
          {
            OFFSET -0.082908 0.021619 -0.034982
            CHANNELS 3 Xrotation Yrotation Zrotation
            JOINT RForearm
            {
              OFFSET -0.195645 -0.000695 -0.001695
              CHANNELS 3 Xrotation Yrotation Zrotation
              JOINT RHand
              {
                OFFSET -0.163209 0.000474 -0.000977
                CHANNELS 3 Xrotation Yrotation Zrotation
                End Site
                {
                  OFFSET 0.0 0.006864 0.0
                }
              }
            }
          }
        }
      }
    }
  }
  JOINT RThigh
  {
    OFFSET -0.072558 0.02774 -0.005953
    CHANNELS 3 Xrotation Yrotation Zrotation
    JOINT RShin
    {
      OFFSET -0.005253 -0.285537 0.0
      CHANNELS 3 Xrotation Yrotation Zrotation
      JOINT RFoot
      {
        OFFSET 0.0 -0.28038 0.0
        CHANNELS 3 Xrotation Yrotation Zrotation
        JOINT RToe
        {
          OFFSET 0.0 -0.030816 0.064441
          CHANNELS 3 Xrotation Yrotation Zrotation
          End Site
          {
            OFFSET 0.0 0.0 0.043231
          }
        }
      }
    }
  }
  JOINT LThigh
  {
    OFFSET 0.072557 0.027741 -0.005953
    CHANNELS 3 Xrotation Yrotation Zrotation
    JOINT LShin
    {
      OFFSET 0.005253 -0.285539 0.0
      CHANNELS 3 Xrotation Yrotation Zrotation
      JOINT LFoot
      {
        OFFSET 0.0 -0.28038 0.0
        CHANNELS 3 Xrotation Yrotation Zrotation
        JOINT LToe
        {
          OFFSET 0.0 -0.030816 0.064441
          CHANNELS 3 Xrotation Yrotation Zrotation
          End Site
          {
            OFFSET 0.0 0.0 0.043231
          }
        }
      }
    }
  }
}
MOTION
Frames: 12
Frame Time: 0.03333333333333333
0.003105 0.56361 -0.039318 3.424858 8.31757 -3.866026 0.955662 0.184125 0.360097 0.011598 1.289923 0.589057 -3.776449 4.566559 -0.615899 -1.20798 0.266166 -0.017159 0.109854 -0.428554 -0.074356 -1.183122 -3.135664 -8.018937 24.436939 -21.256409 -43.723114 11.241669 -26.591215 0.976845 0.161602 0.233363 -0.142332 -2.234081 3.314107 8.571117 18.904049 26.361702 43.502533 6.428908 22.150291 0.876383 -0.179999 -0.167458 -0.049521 -8.415421 -1.96998 -2.126927 21.446291 -1.284831 1.87168 -1.587355 1.839114 0.05101 -0.273974 0.323251 0.170788 -8.180582 2.644586 5.315944 12.548748 0.008095 -4.40916 -1.353087 -2.142644 -0.190112 0.145305 -0.195342 -0.119663 
-0.007234 0.563545 -0.039785 5.323908 11.58151 -2.412975 0.184964 0.169481 0.468471 -0.136491 1.396079 0.46007 -4.634647 3.471517 0.181466 -1.01962 0.297318 -0.325808 0.057613 -0.2115 -0.071713 -0.941617 -3.234344 -8.307777 27.234386 -17.726488 -41.164577 11.068887 -28.812857 0.893367 0.094478 0.147013 -0.10849 -2.057336 2.837115 8.809041 23.797058 25.835861 40.572269 7.560051 22.963322 1.575362 -0.122098 -0.177296 -0.036192 -11.400764 -1.907859 -3.328499 24.23818 -1.469663 2.798809 -1.741603 1.339638 -0.04343 -0.29885 0.246623 0.139626 -9.946755 2.632385 4.490836 11.680413 1.325728 -4.345953 -1.00737 -2.058005 -0.390216 0.099809 -0.168633 -0.077476 
-0.006941 0.562589 -0.016687 6.199278 15.274622 -1.658678 0.024045 -0.033019 0.355356 -0.177108 1.479563 0.621475 -5.879832 2.919909 0.225821 -0.91656 0.365501 -0.408947 0.052765 -0.152608 -0.051634 -0.557313 -2.622555 -8.718925 28.934597 -15.798021 -39.191299 11.319817 -30.489414 0.364358 0.083065 0.147801 -0.113875 -1.517968 1.767475 8.87569 24.588518 24.809065 39.238247 7.207837 24.157694 2.164438 -0.049963 -0.229632 -0.028273 -12.071133 -1.069286 -4.556254 24.892508 -1.045353 2.538535 -1.644291 1.104855 -0.084132 -0.250006 0.335411 0.155419 -9.05936 3.104073 3.083117 10.495598 2.564356 -4.112292 -1.044744 -1.773401 -0.260724 0.079944 -0.12432 -0.048835 
-0.002171 0.558382 -0.000906 6.468856 16.106134 -1.097323 0.089604 -0.145803 0.300525 -0.219616 1.501713 0.769331 -6.628744 2.648417 0.477264 -0.781549 0.371148 -0.421942 0.048001 -0.158003 -0.043846 -0.461608 -2.38116 -8.816181 29.294867 -14.734682 -38.304741 11.692893 -32.114437 0.153672 0.080993 0.155929 -0.12482 -1.348885 1.238928 8.753294 23.843315 23.533661 39.077198 7.551811 26.141344 2.360542 -0.04812 -0.235178 -0.027431 -12.292523 -1.297968 -4.876963 25.588514 -1.138802 2.388478 -1.349884 1.006786 -0.110487 -0.238719 0.358846 0.156661 -9.02223 3.958367 2.624208 11.001266 3.368458 -4.117408 -1.08493 -1.592946 -0.139009 0.069011 -0.123778 -0.04207 
0.003923 0.556364 0.011183 6.968365 15.788606 -1.248038 0.131157 -0.187855 0.260846 -0.277372 1.500675 0.796727 -6.840427 2.393398 0.628216 -0.69547 0.350851 -0.425087 0.047039 -0.163455 -0.046878 -0.432742 -2.220784 -9.054164 28.758461 -13.853467 -38.371422 11.191402 -32.121304 -0.019632 0.082165 0.159957 -0.130542 -1.257856 0.971318 8.701249 22.089285 21.439077 39.096844 7.107677 27.878557 2.246065 -0.042874 -0.236878 -0.027051 -12.287324 -1.995585 -4.549403 25.252565 -1.498641 2.363171 -1.202035 0.940246 -0.120856 -0.232598 0.372681 0.155765 -10.158217 3.992178 2.491737 11.58462 3.676841 -3.934691 -1.092111 -1.414867 -0.043935 0.066827 -0.129724 -0.045063 
0.008378 0.55475 0.015189 7.421265 15.212944 -1.791009 0.197614 -0.198874 0.210504 -0.351019 1.510254 0.805621 -6.659301 2.31678 0.751567 -0.595538 0.348431 -0.428397 0.047275 -0.183599 -0.054727 -0.428946 -2.166149 -9.287022 27.837517 -12.67752 -39.04895 9.86062 -31.285351 -0.261151 0.085217 0.166354 -0.135895 -1.176372 0.783323 8.623681 18.839628 18.746012 39.204304 5.597686 28.682426 1.909735 -0.04617 -0.238727 -0.028015 -12.417224 -2.626364 -3.770407 24.40749 -1.854467 2.371657 -1.177457 0.909911 -0.134956 -0.238255 0.392128 0.160054 -12.179395 3.622461 2.580703 12.591843 3.629665 -3.553745 -1.186394 -1.238309 0.028558 0.068991 -0.135206 -0.047304 
0.010344 0.5552 0.019266 8.190437 14.176282 -2.307075 0.292748 -0.158218 0.144359 -0.467067 1.521387 0.840722 -6.349119 2.474464 1.41948 -0.518851 0.333066 -0.413109 0.046371 -0.18432 -0.058715 -0.45881 -2.071482 -9.476511 27.048605 -11.17608 -40.465942 7.866257 -30.25041 -0.770482 0.082092 0.15855 -0.126863 -1.088826 0.815403 8.491594 14.025712 15.113971 38.989994 2.6294 28.424679 1.679521 -0.026851 -0.238099 -0.02504 -12.308985 -3.460896 -2.897887 22.772762 -2.271497 2.51853 -1.402172 0.965947 -0.113407 -0.252217 0.404927 0.160353 -15.933368 2.805925 2.758166 14.744522 3.496907 -3.071564 -1.285907 -1.021248 0.069091 0.066455 -0.116116 -0.034809 
0.009043 0.555786 0.026431 8.611922 13.318509 -2.574996 0.380944 -0.087021 0.092808 -0.582797 1.536275 0.876395 -5.97625 2.772608 2.307013 -0.450594 0.305372 -0.394252 0.042337 -0.182986 -0.057 -0.516635 -2.036187 -9.467096 26.910269 -9.729171 -41.668461 6.170736 -29.558767 -1.223628 0.077032 0.142385 -0.112899 -1.035892 0.930168 8.304592 9.327292 11.781548 38.194111 -0.253744 28.409483 1.513041 -0.009299 -0.223318 -0.020861 -11.215043 -4.465956 -1.912578 20.848551 -2.745553 2.717412 -1.722511 1.072392 -0.062954 -0.293132 0.397552 0.156344 -19.662783 2.14698 3.191775 16.099297 3.327158 -2.761295 -1.285577 -0.810988 0.083584 0.057547 -0.093677 -0.021591 
0.007266 0.555934 0.037174 9.178077 12.993254 -2.63 0.385932 -0.022349 0.05806 -0.734595 1.522272 0.879149 -5.805036 3.102225 3.003729 -0.380621 0.2576 -0.361312 0.037259 -0.168479 -0.046861 -0.560379 -1.950014 -9.353391 27.512695 -8.546173 -42.259525 5.397487 -29.158371 -1.561006 0.066865 0.116285 -0.089299 -0.943195 1.056073 8.194367 5.81849 9.39651 37.340683 -2.080738 28.911959 1.442022 0.00811 -0.193443 -0.014988 -10.379083 -5.47725 -1.296361 19.740845 -3.298538 2.862616 -1.850785 1.164711 0.004732 -0.359505 0.365199 0.147074 -22.602711 1.889866 3.306639 16.206867 3.234426 -2.568911 -1.138382 -0.701868 0.054217 0.042895 -0.06228 -0.006949 
0.00685 0.555927 0.050284 9.605258 12.830995 -2.792518 0.339421 0.025807 0.053505 -0.859619 1.51848 0.893257 -5.699318 3.482054 3.584569 -0.339158 0.207535 -0.343981 0.034527 -0.162342 -0.037356 -0.57757 -1.867819 -9.193792 28.387411 -7.632893 -42.690964 5.303594 -28.910152 -1.756341 0.059204 0.099741 -0.070438 -0.880515 1.065557 8.194691 3.739442 7.905052 36.823238 -3.002847 29.686516 1.339846 0.012508 -0.16856 -0.011806 -9.16913 -6.429963 -0.768337 18.817215 -3.920956 2.966452 -1.84069 1.229978 0.056454 -0.448363 0.341458 0.141428 -24.681856 1.427444 3.122719 15.423868 2.879805 -2.259367 -0.864163 -0.679698 0.014782 0.038032 -0.045904 -0.002614 
0.007524 0.555776 0.063401 9.563647 12.162102 -3.015125 0.317918 0.052454 0.05209 -0.974795 1.503417 0.952896 -5.682668 3.87797 4.093203 -0.294205 0.176664 -0.321246 0.033075 -0.177983 -0.032538 -0.609299 -1.84214 -9.018986 29.229982 -7.18872 -43.434799 5.444393 -28.692963 -1.731076 0.059469 0.099457 -0.066662 -0.861103 1.039414 8.173928 2.767661 7.042604 36.721165 -3.29891 30.683516 1.133345 0.001132 -0.158441 -0.013663 -7.449518 -7.350973 -0.130331 17.842024 -4.520483 3.056447 -1.719002 1.340134 0.1035 -0.541715 0.332996 0.144697 -26.090025 0.847423 3.045173 14.456971 2.3352 -1.943444 -0.586478 -0.67842 -0.001797 0.048701 -0.050128 -0.008107 
0.008477 0.555357 0.076745 9.405627 11.35855 -3.238553 0.307795 0.07369 0.046708 -1.07902 1.476789 0.996147 -5.773391 4.145067 4.44228 -0.255265 0.154365 -0.304273 0.031137 -0.187237 -0.02705 -0.619657 -1.806885 -8.820547 30.051449 -7.224056 -43.894222 5.902856 -28.44017 -1.673332 0.059623 0.098423 -0.064041 -0.87447 0.999905 8.145025 2.784763 6.656927 36.593994 -2.881582 31.743958 1.008829 -0.003528 -0.150315 -0.014502 -5.874486 -8.168655 0.378301 17.424793 -5.058067 3.228066 -1.507594 1.427036 0.144767 -0.619443 0.326576 0.148397 -26.972538 0.372595 2.977474 13.470017 1.827494 -1.632778 -0.317689 -0.713291 -0.027415 0.05676 -0.053879 -0.012611 
